<?xml version="1.0" encoding="UTF-8"?>
<svg width="24px" height="24px" viewBox="0 0 24 24" version="1.1" xmlns="http://www.w3.org/2000/svg" xmlns:xlink="http://www.w3.org/1999/xlink">
    <!-- Generator: Sketch 58 (84663) - https://sketch.com -->
    <title>Path Copy 3</title>
    <desc>Created with Sketch.</desc>
    <g id="Page-1" stroke="none" stroke-width="1" fill="none" fill-rule="evenodd">
        <g id="Главная" transform="translate(-297.000000, -1957.000000)" fill="#1E1E1E" fill-rule="nonzero">
            <path d="M320.547503,1967.9306 L310.068242,1957.45262 C309.465292,1956.84913 308.486567,1956.84913 307.882859,1957.45262 L305.706956,1959.62874 L308.467018,1962.3888 C309.108666,1962.17216 309.844121,1962.31741 310.35535,1962.82874 C310.869233,1963.34326 311.01345,1964.08499 310.791373,1964.72878 L313.451582,1967.38899 C314.095168,1967.16721 314.837722,1967.3105 315.351626,1967.82531 C316.070102,1968.54358 316.070102,1969.70745 315.351626,1970.4259 C314.633045,1971.14459 313.469172,1971.14459 312.750191,1970.4259 C312.209955,1969.88525 312.076333,1969.09148 312.349959,1968.42586 L309.869021,1965.94492 L309.86881,1972.47347 C310.043974,1972.56019 310.209278,1972.67592 310.355244,1972.82125 C311.073509,1973.53943 311.073509,1974.7031 310.355244,1975.42248 C309.636769,1976.14064 308.472369,1976.14064 307.754652,1975.42248 C307.036281,1974.70316 307.036281,1973.5395 307.754652,1972.82125 C307.932185,1972.64403 308.13761,1972.5099 308.356801,1972.41999 L308.356801,1965.83077 C308.137504,1965.74124 307.932322,1965.6081 307.754525,1965.42946 C307.210391,1964.88575 307.07934,1964.08714 307.358401,1963.41895 L304.637522,1960.69764 L297.452765,1967.88219 C296.849078,1968.48615 296.849078,1969.46488 297.452765,1970.06842 L307.931395,1980.54641 C308.534682,1981.14991 309.513069,1981.14991 310.117199,1980.54641 L320.547377,1970.11792 C321.150874,1969.51413 321.150874,1968.53511 320.547377,1967.93148" id="Path-Copy-3"></path>
        </g>
    </g>
</svg>