<?xml version="1.0" encoding="UTF-8"?>
<svg width="38px" height="38px" viewBox="0 0 38 38" version="1.1" xmlns="http://www.w3.org/2000/svg" xmlns:xlink="http://www.w3.org/1999/xlink">
    <!-- Generator: Sketch 58 (84663) - https://sketch.com -->
    <title>Rectangle Copy 60</title>
    <desc>Created with Sketch.</desc>
    <g id="Page-1" stroke="none" stroke-width="1" fill="none" fill-rule="evenodd">
        <g id="Главная" transform="translate(-301.000000, -1751.000000)" fill="#64AD33" fill-rule="nonzero">
            <g id="Group-21" transform="translate(301.000000, 1751.000000)">
                <g id="nodejs-icon-copy-2" transform="translate(0.000000, 0.000000)">
                    <path d="M15.622359,0.406407725 C16.5604541,-0.130551344 17.7823224,-0.132976755 18.719609,0.406407725 C23.4350124,3.07085657 28.151898,5.73112831 32.866493,8.3971941 C33.7532502,8.89669404 34.346398,9.88356687 34.3374717,10.9053387 L34.3374717,26.9356891 C34.3439726,27.9997709 33.6922107,29.0102241 32.7566758,29.4984054 C28.056768,32.1481671 23.3592857,34.8011626 18.6601864,37.4509242 C17.702688,37.9983934 16.4562962,37.9562182 15.5287112,37.3638789 C14.1196821,36.5470543 12.7082276,35.7342721 11.2990637,34.918256 C11.0111135,34.7465908 10.6865127,34.6099593 10.4831824,34.3307676 C10.6629323,34.088496 10.9842993,34.0583131 11.2454352,33.9525382 C11.8335974,33.765512 12.3737903,33.4653001 12.914118,33.1739812 C13.0507495,33.0804682 13.2175639,33.1163103 13.3485361,33.199987 C14.5534265,33.890825 15.7476719,34.6017399 16.9566046,35.2859753 C17.2145067,35.4348686 17.4756426,35.2371976 17.6960855,35.1143101 C22.3081395,32.5076669 26.9258527,29.9108601 31.5370982,27.3034084 C31.707955,27.2212139 31.8024112,27.0398471 31.7885325,26.8526862 C31.7917664,21.5646162 31.789341,16.2756031 31.7901494,10.9875332 C31.8096875,10.7751749 31.6868,10.5799293 31.4947883,10.4930188 C26.8111847,7.85538421 22.1300065,5.21370728 17.4472114,2.57539898 C17.2811425,2.46122854 17.0619679,2.46090733 16.8955651,2.57459051 C12.21277,5.21370728 7.53240029,7.85780962 2.84960518,10.4953094 C2.65826719,10.5823548 2.52985515,10.7743665 2.55262706,10.9875332 C2.55343553,16.2756031 2.55262706,21.5646162 2.55262706,26.8534946 C2.53599638,27.0405288 2.63762035,27.2181288 2.80729523,27.2985576 C4.05692093,28.0071819 5.30816357,28.7108206 6.55859774,29.4170194 C7.26304492,29.796192 8.12797346,30.0214858 8.90410502,29.7309754 C9.58901416,29.4853352 10.0691108,28.7864125 10.0560405,28.0591934 C10.0625083,22.8019801 10.0528067,17.5439584 10.0608914,12.2875535 C10.0437787,12.0541751 10.2651649,11.8613549 10.4920756,11.8833183 C11.0924996,11.879276 11.693732,11.8752336 12.294156,11.8849353 C12.5447818,11.879276 12.7172555,12.1305755 12.6862641,12.3657056 C12.6838387,17.656201 12.6927319,22.9468311 12.6822218,28.2373264 C12.6838387,29.6472987 12.1045697,31.181506 10.8003723,31.8714007 C9.19367215,32.703721 7.20779944,32.5272049 5.62050262,31.7291099 C4.24637248,31.0432576 2.93503355,30.233844 1.58529227,29.4990792 C0.647331895,29.0135927 -0.00119608502,27.9990971 0.00529044787,26.9358239 L0.00529044787,10.9053387 C-0.00442996649,9.86241189 0.612298179,8.85761797 1.52667817,8.36539426 C6.22577743,5.71347671 10.9240682,3.05953798 15.622359,0.406407725 Z" id="Path"></path>
                    <path d="M19.7218428,11.5107482 C21.7713152,11.3788328 23.965369,11.4325961 25.8096246,12.4422408 C27.2375181,13.215947 28.0291453,14.8397597 28.0543426,16.4261133 C28.0144581,16.6400885 27.7907813,16.7581252 27.5865078,16.7434379 C26.9918778,16.7426295 26.3971131,16.7515226 25.8024832,16.7393956 C25.5502404,16.7490972 25.4036378,16.5165273 25.3719727,16.2935242 C25.201116,15.5345053 24.7871791,14.7827626 24.0727608,14.4166602 C22.9760708,13.8675741 21.7044816,13.8951968 20.5086192,13.9066502 C19.6356059,13.9530025 18.6968371,14.0285944 17.9572215,14.5419731 C17.3894058,14.9308474 17.2169321,15.7158721 17.4195887,16.3480959 C17.6106572,16.802052 18.1346807,16.9485199 18.5634395,17.0835345 C21.0333165,17.7295023 23.6506045,17.6652289 26.0733207,18.5153355 C27.076363,18.8618998 28.0575765,19.5356251 28.4009069,20.5858281 C28.8500122,21.993375 28.6531497,23.6758019 27.6517244,24.8057739 C26.8396159,25.7356496 25.6568237,26.2417521 24.4771307,26.516632 C22.907755,26.8665649 21.2790915,26.8754581 19.6853269,26.720097 C18.1866923,26.5492403 16.627153,26.1555152 15.4702319,25.1344171 C14.4809336,24.2754174 13.9977378,22.9369947 14.0457071,21.6451938 C14.0571604,21.4270415 14.2743694,21.2749144 14.483359,21.2928354 C15.0821661,21.2879846 15.6809731,21.2863677 16.2797802,21.2936439 C16.5189527,21.2765313 16.6962772,21.4832302 16.708539,21.7086587 C16.8190299,22.4318354 17.0908107,23.1908544 17.7214176,23.6196132 C18.938435,24.4047726 20.4655008,24.3510094 21.8590342,24.3729728 C23.0135299,24.3217697 24.3095079,24.306274 25.2516453,23.5432127 C25.7487199,23.1079862 25.8959962,22.3798239 25.7616554,21.7533941 C25.6161307,21.2245197 25.0628675,20.978071 24.5877564,20.8169159 C22.1495445,20.0456352 19.5030168,20.3255007 17.0883853,19.4532959 C16.108115,19.1068663 15.1601835,18.4518706 14.783571,17.444786 C14.2580653,16.0194527 14.4988547,14.2564483 15.6052464,13.1646091 C16.6840154,12.0785639 18.241264,11.6603152 19.7218428,11.5106135 L19.7218428,11.5107482 Z" id="Path"></path>
                </g>
            </g>
        </g>
    </g>
</svg>