<?xml version="1.0" encoding="UTF-8"?>
<svg width="12px" height="16px" viewBox="0 0 12 16" version="1.1" xmlns="http://www.w3.org/2000/svg" xmlns:xlink="http://www.w3.org/1999/xlink">
    <!-- Generator: Sketch 58 (84663) - https://sketch.com -->
    <title>Group 4</title>
    <desc>Created with Sketch.</desc>
    <g id="Page-1" stroke="none" stroke-width="1" fill="none" fill-rule="evenodd">
        <g id="Главная" transform="translate(-916.000000, -1863.000000)">
            <g id="Group-4" transform="translate(916.000000, 1863.000000)">
                <path d="M1,0 L11,0 C11.5522847,0 12,0.44771525 12,1 L12,13 C12,13.5522847 11.5522847,14 11,14 L1,14 C0.44771525,14 0,13.5522847 0,13 L0,1 C0,0.44771525 0.44771525,0 1,0 Z" id="Path" fill="#FFFFFF" fill-rule="nonzero"></path>
                <path d="M11,0 C11.5522847,0 12,0.44771525 12,1 L12,13 C12,13.5522847 11.5522847,14 11,14 L6,14 L6,16 L4.5,14.5 L3,16 L3,14 L1,14 C0.44771525,14 0,13.5522847 0,13 L0,1 C0,0.44771525 0.44771525,0 1,0 L11,0 Z M11,11 L1,11 L1,13 L3,13 L3,12 L6,12 L6,13 L11,13 L11,11 Z M11,1 L2,1 L2,10 L11,10 L11,1 Z" id="Combined-Shape" fill="#6B737E" fill-rule="nonzero"></path>
                <rect id="Rectangle" fill="#6B737E" x="3" y="2" width="1" height="1"></rect>
                <rect id="Rectangle-Copy-38" fill="#6B737E" x="3" y="4" width="1" height="1"></rect>
                <rect id="Rectangle-Copy-39" fill="#6B737E" x="3" y="6" width="1" height="1"></rect>
                <rect id="Rectangle-Copy-40" fill="#6B737E" x="3" y="8" width="1" height="1"></rect>
            </g>
        </g>
    </g>
</svg>